<?xml version="1.0" standalone="no"?>
<!DOCTYPE svg PUBLIC "-//W3C//DTD SVG 20010904//EN"
 "http://www.w3.org/TR/2001/REC-SVG-20010904/DTD/svg10.dtd">
<svg version="1.0" xmlns="http://www.w3.org/2000/svg"
 width="498.000000pt" height="498.000000pt" viewBox="0 0 498.000000 498.000000"
 preserveAspectRatio="xMidYMid meet">
<metadata>
Created by potrace 1.11, written by Peter Selinger 2001-2013
</metadata>
<g transform="translate(0.000000,498.000000) scale(0.100000,-0.100000)"
fill="#000000" stroke="none">
<path d="M2690 4960 c-41 -14 -460 -135 -1295 -375 -242 -69 -460 -132 -485
-140 l-45 -15 -47 -133 c-25 -72 -62 -176 -81 -229 l-35 -98 32 -27 c52 -45
69 -59 311 -257 127 -104 250 -205 275 -226 25 -21 77 -63 115 -94 39 -31 79
-64 90 -74 11 -10 43 -36 70 -57 28 -22 52 -43 55 -46 5 -5 174 -145 291 -240
113 -92 228 -186 281 -231 19 -16 19 -26 14 -245 -16 -623 -24 -885 -29 -889
-3 -3 -152 93 -772 500 -93 62 -205 134 -247 161 -68 44 -78 54 -79 80 -3 89
-8 361 -9 506 l-1 167 -207 138 c-114 77 -219 147 -235 156 l-27 18 6 -303 c3
-166 7 -365 9 -442 1 -77 4 -231 5 -343 3 -194 4 -204 24 -217 100 -63 452
-285 491 -310 28 -18 244 -155 480 -305 237 -150 446 -283 465 -295 100 -65
244 -155 250 -155 4 0 45 33 92 72 116 99 184 157 209 177 17 13 21 30 24 91
4 83 13 250 20 380 9 160 15 275 20 390 3 63 8 151 10 195 2 44 7 139 11 210
3 72 8 148 9 170 2 22 4 52 4 67 1 28 -6 23 301 186 47 24 114 60 150 80 35
19 103 55 150 80 47 24 112 59 145 77 33 18 94 50 135 72 41 22 114 61 161 86
l85 46 -2 -47 c-3 -62 -13 -240 -19 -322 -3 -36 -7 -103 -10 -150 -9 -161 -16
-275 -20 -325 -2 -27 -7 -106 -11 -175 -4 -69 -8 -136 -9 -150 -2 -14 -3 -51
-4 -82 -1 -70 -3 -72 -152 -158 -322 -187 -399 -232 -403 -239 -2 -3 -7 -87
-10 -186 -4 -99 -9 -213 -11 -253 -3 -39 -2 -72 0 -72 2 0 159 94 347 208 189
114 365 221 392 237 28 17 64 39 82 50 18 11 58 35 91 54 74 43 106 68 109 86
1 7 5 78 8 157 4 78 9 179 11 223 6 105 13 240 20 400 4 72 8 155 10 185 2 30
7 125 10 210 4 85 9 175 10 200 9 155 19 389 19 469 l1 95 -210 58 c-115 32
-214 59 -220 60 -5 1 -323 -154 -707 -346 l-696 -349 -288 234 c-158 129 -317
259 -354 289 -71 58 -113 92 -215 175 -257 208 -305 248 -303 250 2 2 122 39
268 83 846 257 1006 305 1016 306 10 1 210 -162 264 -214 8 -8 69 -61 135
-116 66 -56 134 -113 150 -128 17 -14 35 -26 41 -26 7 0 55 20 108 45 53 25
138 65 190 89 51 24 103 47 115 51 30 9 27 17 -21 55 -24 19 -54 44 -68 56
-14 13 -198 167 -410 343 -237 197 -393 321 -405 320 -11 0 -31 -4 -45 -9z"/>
<path d="M985 802 c-82 -27 -120 -128 -75 -200 19 -31 33 -39 168 -97 24 -10
47 -26 53 -36 15 -29 10 -75 -10 -100 -16 -20 -28 -24 -76 -23 -68 1 -104 30
-123 99 -6 25 -16 45 -21 45 -5 0 -9 -36 -10 -80 -1 -74 9 -102 23 -65 5 13
12 12 48 -7 52 -27 138 -29 186 -4 64 33 91 120 57 186 -11 21 -37 39 -93 65
-112 52 -126 61 -136 88 -21 57 19 106 88 109 48 2 87 -28 106 -80 22 -63 32
-56 32 23 0 59 -3 75 -12 75 -5 0 -10 -6 -10 -14 0 -11 -8 -10 -40 5 -39 19
-114 24 -155 11z"/>
<path d="M1413 797 c-6 -10 15 -27 33 -27 19 0 21 -17 19 -210 -3 -229 0 -210
-30 -210 -16 0 -25 -6 -25 -15 0 -13 27 -15 202 -13 l203 3 3 68 c2 42 -1 67
-7 67 -6 0 -11 -7 -11 -16 0 -9 -7 -31 -16 -50 -12 -25 -24 -35 -51 -40 -41
-8 -153 -12 -170 -6 -9 3 -13 34 -13 108 0 108 0 108 45 105 56 -4 65 -11 71
-51 12 -73 24 -42 24 60 0 99 -12 132 -24 66 -7 -36 -24 -46 -83 -46 l-33 0 0
95 0 95 78 -2 c42 -1 87 -6 98 -11 22 -9 44 -46 44 -72 0 -8 6 -15 13 -15 9 0
11 18 9 64 l-4 63 -185 -1 c-101 0 -187 -4 -190 -9z"/>
<path d="M1959 794 c-7 -8 -2 -14 13 -17 16 -4 44 -41 93 -124 l70 -117 -1
-78 c-2 -95 -7 -108 -39 -108 -14 0 -25 -6 -25 -13 0 -11 25 -14 105 -15 83
-1 105 2 105 13 0 7 -12 15 -27 17 l-28 3 -3 96 -3 96 63 111 c35 62 71 115
81 118 9 3 17 11 17 18 0 16 -122 14 -128 -2 -2 -7 3 -12 10 -12 39 0 37 -23
-9 -112 -25 -49 -49 -86 -53 -81 -4 4 -22 35 -39 68 -18 33 -37 64 -42 70 -16
16 -10 47 11 52 12 3 19 10 17 16 -5 15 -176 15 -188 1z"/>
<path d="M2527 798 c-13 -8 -11 -10 26 -26 l27 -12 0 -189 c0 -104 -3 -196 -6
-205 -3 -9 -14 -16 -24 -16 -10 0 -20 -7 -24 -15 -9 -24 262 -19 329 6 113 42
164 167 125 309 -15 57 -79 120 -140 139 -47 15 -292 22 -313 9z m296 -46 c52
-30 72 -83 72 -192 -1 -81 -4 -101 -24 -137 -34 -59 -81 -78 -181 -74 l-25 1
1 213 c1 116 2 214 3 216 3 10 128 -11 154 -27z"/>
<path d="M3172 791 c2 -8 11 -15 21 -17 11 -1 21 -5 25 -8 8 -9 9 -373 0 -396
-4 -11 -16 -20 -28 -20 -11 0 -20 -7 -20 -15 0 -13 29 -15 200 -15 153 0 200
3 200 13 1 6 3 38 7 70 6 65 -10 79 -24 20 -13 -54 -45 -73 -128 -75 -127 -2
-115 -13 -115 107 0 112 -2 109 55 105 40 -3 53 -15 61 -56 12 -66 24 -33 24
66 0 60 -4 100 -10 100 -5 0 -10 -3 -11 -7 -2 -23 -10 -57 -14 -61 -3 -3 -27
-7 -55 -10 l-50 -5 0 96 0 96 81 -1 c102 -2 131 -21 138 -90 1 -5 6 -8 11 -8
11 0 13 99 2 116 -5 8 -65 11 -190 10 -151 -1 -182 -3 -180 -15z"/>
<path d="M3753 795 c1 -5 14 -15 30 -22 l27 -12 -2 -203 c-3 -200 -3 -203 -25
-206 -12 -2 -24 -10 -27 -18 -5 -12 24 -14 188 -14 l193 0 2 54 c1 30 4 66 7
80 2 14 0 26 -6 26 -11 0 -14 -7 -25 -53 -3 -16 -17 -40 -30 -53 -23 -23 -31
-25 -107 -22 l-83 3 0 203 c0 214 4 229 48 218 11 -3 17 2 17 12 0 15 -14 17
-104 17 -63 0 -104 -4 -103 -10z"/>
<path d="M2175 206 c-45 -45 -45 -143 -1 -185 30 -28 109 -27 114 2 3 14 0 16
-22 7 -26 -10 -68 0 -80 18 -3 5 -8 26 -12 47 -11 71 30 120 89 104 19 -5 27
-4 27 6 0 33 -82 34 -115 1z"/>
<path d="M2349 204 c-43 -46 -32 -179 16 -198 32 -12 71 -6 92 14 44 40 39
176 -7 200 -34 18 -75 12 -101 -16z m75 -5 c50 -23 46 -162 -4 -169 -33 -5
-47 1 -58 25 -19 41 -15 99 9 129 24 30 21 29 53 15z"/>
<path d="M2525 118 c0 -94 3 -113 16 -116 12 -2 15 7 14 45 -2 79 29 77 65 -3
10 -25 26 -44 34 -44 21 0 20 2 -10 61 -23 46 -24 52 -10 62 27 20 28 58 4 84
-16 17 -32 23 -67 23 l-46 0 0 -112z m92 64 c19 -23 -2 -52 -37 -52 -25 0 -28
3 -26 28 1 15 5 32 9 39 9 14 37 7 54 -15z"/>
<path d="M2710 115 c0 -96 3 -115 15 -115 11 0 15 11 15 40 0 25 5 40 13 41
63 4 97 31 97 80 0 42 -31 65 -90 68 l-50 2 0 -116z m98 72 c15 -12 16 -49 0
-65 -7 -7 -25 -12 -40 -12 -27 0 -28 2 -28 49 0 47 1 48 28 43 15 -2 33 -9 40
-15z"/>
<path d="M2919 217 c-50 -38 -56 -149 -11 -199 19 -22 70 -23 99 -3 47 33 53
147 10 193 -23 24 -72 29 -98 9z m95 -104 c0 -46 -4 -59 -23 -74 -28 -23 -32
-23 -56 -5 -22 16 -33 112 -16 144 15 28 51 32 76 10 15 -14 20 -31 19 -75z"/>
<path d="M3083 115 c0 -90 3 -115 13 -115 13 0 16 15 17 77 0 16 6 23 19 23
13 0 25 -15 41 -50 14 -32 28 -50 39 -50 16 0 16 4 -5 48 -12 26 -26 49 -30
50 -4 2 3 15 16 28 47 47 9 104 -69 104 l-41 0 0 -115z m95 56 c4 -29 -20 -51
-47 -44 -14 4 -19 14 -19 39 0 33 2 35 32 32 24 -2 32 -8 34 -27z"/>
<path d="M3310 215 c0 -8 -4 -23 -9 -33 -5 -9 -20 -54 -34 -99 -20 -67 -22
-83 -11 -83 8 0 19 11 24 26 9 23 14 25 57 22 41 -3 48 -6 51 -26 2 -13 10
-22 21 -22 17 0 15 11 -18 115 -32 102 -39 115 -58 115 -14 0 -23 -6 -23 -15z
m54 -111 c5 -17 2 -22 -18 -26 -41 -8 -50 4 -36 48 7 22 15 46 17 54 5 14 16
-9 37 -76z"/>
<path d="M3442 218 c3 -7 18 -14 35 -16 l30 -3 -1 -97 c-1 -80 2 -97 14 -97
12 0 15 17 15 98 -1 103 0 105 53 98 6 -1 12 5 12 14 0 12 -15 15 -81 15 -60
0 -80 -3 -77 -12z"/>
<path d="M3640 215 c0 -9 6 -15 13 -14 35 4 37 -1 37 -86 0 -85 -2 -90 -37
-86 -7 1 -13 -5 -13 -14 0 -12 13 -15 65 -15 52 0 65 3 65 15 0 9 -6 15 -12
14 -36 -4 -38 1 -38 86 0 87 3 92 43 86 4 0 7 6 7 14 0 12 -14 15 -65 15 -52
0 -65 -3 -65 -15z"/>
<path d="M3852 223 c-42 -17 -59 -145 -24 -192 23 -31 73 -39 107 -17 48 31
55 148 13 193 -21 22 -64 29 -96 16z m89 -64 c11 -45 2 -102 -20 -120 -24 -20
-57 -14 -71 12 -13 22 -15 86 -6 117 16 50 82 44 97 -9z"/>
<path d="M4003 115 c-1 -92 2 -115 13 -115 15 0 15 1 15 103 0 38 4 65 10 62
5 -4 9 -10 9 -15 0 -5 11 -33 24 -62 12 -29 26 -61 29 -70 4 -10 15 -18 26
-18 17 0 20 8 23 78 4 110 0 152 -18 152 -11 0 -14 -16 -12 -85 2 -47 1 -85
-2 -85 -3 0 -21 37 -41 83 -25 59 -41 83 -55 85 -18 3 -20 -4 -21 -113z"/>
</g>
</svg>
